<?xml version="1.0" encoding="UTF-8" standalone="no"?>
<!DOCTYPE svg PUBLIC "-//W3C//DTD SVG 1.1//EN" "http://www.w3.org/Graphics/SVG/1.1/DTD/svg11.dtd">
<svg width="100%" height="100%" viewBox="0 0 842 1210" version="1.1" xmlns="http://www.w3.org/2000/svg" xmlns:xlink="http://www.w3.org/1999/xlink" xml:space="preserve" xmlns:serif="http://www.serif.com/" style="fill-rule:evenodd;clip-rule:evenodd;stroke-linejoin:round;stroke-miterlimit:1.41421;">
    <g transform="matrix(1,0,0,1,-377.101,-228.174)">
        <g transform="matrix(9.51661,0,0,9.51661,-3507.88,-7262.65)">
            <path d="M408.346,822.632L408.346,787.132L421.246,787.132C424.146,787.132 426.688,787.598 428.871,788.532C431.055,789.465 432.88,790.732 434.346,792.332C435.813,793.932 436.913,795.807 437.646,797.957C438.38,800.107 438.746,802.398 438.746,804.832C438.746,807.532 438.338,809.973 437.521,812.157C436.705,814.34 435.53,816.207 433.996,817.757C432.463,819.307 430.621,820.507 428.471,821.357C426.321,822.207 423.913,822.632 421.246,822.632L408.346,822.632ZM431.796,804.832C431.796,803.132 431.563,801.565 431.096,800.132C430.63,798.698 429.946,797.465 429.046,796.432C428.146,795.398 427.038,794.598 425.721,794.032C424.405,793.465 422.913,793.182 421.246,793.182L415.246,793.182L415.246,816.582L421.246,816.582C422.946,816.582 424.455,816.282 425.771,815.682C427.088,815.082 428.188,814.257 429.071,813.207C429.955,812.157 430.63,810.915 431.096,809.482C431.563,808.048 431.796,806.498 431.796,804.832Z" style="fill-rule:nonzero;"/>
            <path d="M450.646,823.132C449.38,823.132 448.196,822.923 447.096,822.507C445.996,822.09 445.046,821.507 444.246,820.757C443.446,820.007 442.821,819.132 442.371,818.132C441.921,817.132 441.696,816.032 441.696,814.832C441.696,813.598 441.971,812.457 442.521,811.407C443.071,810.357 443.838,809.465 444.821,808.732C445.805,807.998 446.98,807.423 448.346,807.007C449.713,806.59 451.213,806.382 452.846,806.382C454.013,806.382 455.155,806.482 456.271,806.682C457.388,806.882 458.38,807.165 459.246,807.532L459.246,806.032C459.246,804.298 458.755,802.965 457.771,802.032C456.788,801.098 455.33,800.632 453.396,800.632C451.996,800.632 450.63,800.882 449.296,801.382C447.963,801.882 446.596,802.615 445.196,803.582L443.146,799.332C446.513,797.098 450.146,795.982 454.046,795.982C457.813,795.982 460.738,796.907 462.821,798.757C464.905,800.607 465.946,803.282 465.946,806.782L465.946,814.932C465.946,815.632 466.071,816.132 466.321,816.432C466.571,816.732 466.98,816.898 467.546,816.932L467.546,822.632C466.413,822.865 465.43,822.982 464.596,822.982C463.33,822.982 462.355,822.698 461.671,822.132C460.988,821.565 460.563,820.815 460.396,819.882L460.246,818.432C459.08,819.965 457.663,821.132 455.996,821.932C454.33,822.732 452.546,823.132 450.646,823.132ZM452.546,818.232C453.68,818.232 454.755,818.032 455.771,817.632C456.788,817.232 457.58,816.698 458.146,816.032C458.88,815.465 459.246,814.832 459.246,814.132L459.246,811.132C458.446,810.832 457.58,810.59 456.646,810.407C455.713,810.223 454.813,810.132 453.946,810.132C452.213,810.132 450.796,810.523 449.696,811.307C448.596,812.09 448.046,813.082 448.046,814.282C448.046,815.415 448.48,816.357 449.346,817.107C450.213,817.857 451.28,818.232 452.546,818.232Z" style="fill-rule:nonzero;"/>
            <path d="M496.546,822.632L489.846,822.632L489.846,807.932C489.846,805.832 489.48,804.298 488.746,803.332C488.013,802.365 486.996,801.882 485.696,801.882C485.03,801.882 484.346,802.015 483.646,802.282C482.946,802.548 482.288,802.923 481.671,803.407C481.055,803.89 480.496,804.465 479.996,805.132C479.496,805.798 479.13,806.532 478.896,807.332L478.896,822.632L472.196,822.632L472.196,796.432L478.246,796.432L478.246,801.282C479.213,799.615 480.613,798.315 482.446,797.382C484.28,796.448 486.346,795.982 488.646,795.982C490.28,795.982 491.613,796.282 492.646,796.882C493.68,797.482 494.48,798.265 495.046,799.232C495.613,800.198 496.005,801.298 496.221,802.532C496.438,803.765 496.546,805.015 496.546,806.282L496.546,822.632Z" style="fill-rule:nonzero;"/>
        </g>
        <g transform="matrix(8.87916,0,0,8.87916,-3388.63,-8884.43)">
            <path d="M449.034,1101.87L449.034,1107.92L424.384,1107.92L424.384,1072.42L448.584,1072.42L448.584,1078.47L431.284,1078.47L431.284,1087.02L446.234,1087.02L446.234,1092.62L431.284,1092.62L431.284,1101.87L449.034,1101.87Z" style="fill-rule:nonzero;"/>
            <path d="M453.734,1071.42L460.434,1071.42L460.434,1099.52C460.434,1100.48 460.667,1101.23 461.134,1101.77C461.6,1102.3 462.267,1102.57 463.134,1102.57C463.534,1102.57 463.975,1102.5 464.459,1102.37C464.942,1102.23 465.4,1102.07 465.834,1101.87L466.734,1106.97C465.834,1107.4 464.784,1107.73 463.584,1107.97C462.384,1108.2 461.3,1108.32 460.334,1108.32C458.234,1108.32 456.609,1107.76 455.459,1106.64C454.309,1105.53 453.734,1103.93 453.734,1101.87L453.734,1071.42Z" style="fill-rule:nonzero;"/>
            <path d="M469.584,1071.42L476.284,1071.42L476.284,1099.52C476.284,1100.48 476.517,1101.23 476.984,1101.77C477.45,1102.3 478.117,1102.57 478.984,1102.57C479.384,1102.57 479.825,1102.5 480.309,1102.37C480.792,1102.23 481.25,1102.07 481.684,1101.87L482.584,1106.97C481.684,1107.4 480.634,1107.73 479.434,1107.97C478.234,1108.2 477.15,1108.32 476.184,1108.32C474.084,1108.32 472.459,1107.76 471.309,1106.64C470.159,1105.53 469.584,1103.93 469.584,1101.87L469.584,1071.42Z" style="fill-rule:nonzero;"/>
            <path d="M485.484,1107.92L485.484,1081.72L492.184,1081.72L492.184,1107.92L485.484,1107.92ZM485.484,1078.07L485.484,1071.42L492.184,1071.42L492.184,1078.07L485.484,1078.07Z" style="fill-rule:nonzero;"/>
            <path d="M508.134,1108.42C505.934,1108.42 503.784,1108.07 501.684,1107.37C499.584,1106.67 497.784,1105.67 496.284,1104.37L498.784,1100.17C500.384,1101.3 501.942,1102.16 503.459,1102.74C504.975,1103.33 506.484,1103.62 507.984,1103.62C509.317,1103.62 510.367,1103.37 511.134,1102.87C511.9,1102.37 512.284,1101.65 512.284,1100.72C512.284,1099.78 511.834,1099.1 510.934,1098.67C510.034,1098.23 508.567,1097.73 506.534,1097.17C504.834,1096.7 503.384,1096.25 502.184,1095.82C500.984,1095.38 500.017,1094.89 499.284,1094.34C498.55,1093.79 498.017,1093.16 497.684,1092.44C497.35,1091.72 497.184,1090.87 497.184,1089.87C497.184,1088.53 497.442,1087.33 497.959,1086.27C498.475,1085.2 499.2,1084.29 500.134,1083.54C501.067,1082.79 502.159,1082.22 503.409,1081.82C504.659,1081.42 506.017,1081.22 507.484,1081.22C509.45,1081.22 511.292,1081.5 513.009,1082.07C514.725,1082.63 516.3,1083.55 517.734,1084.82L515.034,1088.87C513.7,1087.87 512.409,1087.13 511.159,1086.67C509.909,1086.2 508.667,1085.97 507.434,1085.97C506.3,1085.97 505.35,1086.2 504.584,1086.67C503.817,1087.13 503.434,1087.88 503.434,1088.92C503.434,1089.38 503.525,1089.77 503.709,1090.07C503.892,1090.37 504.184,1090.63 504.584,1090.87C504.984,1091.1 505.509,1091.33 506.159,1091.54C506.809,1091.76 507.617,1091.98 508.584,1092.22C510.384,1092.68 511.925,1093.15 513.209,1093.62C514.492,1094.08 515.542,1094.62 516.359,1095.22C517.175,1095.82 517.775,1096.51 518.159,1097.29C518.542,1098.08 518.734,1099.02 518.734,1100.12C518.734,1102.68 517.784,1104.71 515.884,1106.19C513.984,1107.67 511.4,1108.42 508.134,1108.42Z" style="fill-rule:nonzero;"/>
        </g>
        <g transform="matrix(3.92478,0,0,3.92478,-1329.39,-4268.88)">
            <path d="M458.548,1362.81C458.315,1362.57 457.89,1362.26 457.273,1361.86C456.657,1361.46 455.907,1361.07 455.023,1360.68C454.14,1360.3 453.182,1359.97 452.148,1359.71C451.115,1359.44 450.065,1359.31 448.998,1359.31C447.098,1359.31 445.682,1359.66 444.748,1360.36C443.815,1361.06 443.348,1362.04 443.348,1363.31C443.348,1364.04 443.523,1364.65 443.873,1365.13C444.223,1365.62 444.732,1366.04 445.398,1366.41C446.065,1366.77 446.907,1367.11 447.923,1367.41C448.94,1367.71 450.115,1368.02 451.448,1368.36C453.182,1368.82 454.757,1369.32 456.173,1369.86C457.59,1370.39 458.79,1371.06 459.773,1371.86C460.757,1372.66 461.515,1373.62 462.048,1374.73C462.582,1375.85 462.848,1377.22 462.848,1378.86C462.848,1380.76 462.49,1382.38 461.773,1383.73C461.057,1385.08 460.09,1386.17 458.873,1387.01C457.657,1387.84 456.257,1388.45 454.673,1388.83C453.09,1389.21 451.432,1389.41 449.698,1389.41C447.032,1389.41 444.398,1389.01 441.798,1388.21C439.198,1387.41 436.865,1386.27 434.798,1384.81L437.848,1378.86C438.148,1379.16 438.69,1379.55 439.473,1380.03C440.257,1380.52 441.182,1381 442.248,1381.48C443.315,1381.96 444.498,1382.37 445.798,1382.71C447.098,1383.04 448.432,1383.21 449.798,1383.21C453.598,1383.21 455.498,1381.99 455.498,1379.56C455.498,1378.79 455.282,1378.14 454.848,1377.61C454.415,1377.07 453.798,1376.61 452.998,1376.21C452.198,1375.81 451.232,1375.44 450.098,1375.11C448.965,1374.77 447.698,1374.41 446.298,1374.01C444.598,1373.54 443.123,1373.03 441.873,1372.48C440.623,1371.93 439.582,1371.28 438.748,1370.53C437.915,1369.78 437.29,1368.91 436.873,1367.93C436.457,1366.95 436.248,1365.77 436.248,1364.41C436.248,1362.61 436.582,1361.01 437.248,1359.61C437.915,1358.21 438.84,1357.04 440.023,1356.11C441.207,1355.17 442.582,1354.46 444.148,1353.98C445.715,1353.5 447.398,1353.26 449.198,1353.26C451.698,1353.26 453.998,1353.65 456.098,1354.43C458.198,1355.21 460.032,1356.14 461.598,1357.21L458.548,1362.81Z" style="fill:#f2511b;fill-rule:nonzero;"/>
            <path d="M479.498,1389.51C477.365,1389.51 475.448,1389.14 473.748,1388.41C472.048,1387.67 470.607,1386.68 469.423,1385.43C468.24,1384.18 467.332,1382.74 466.698,1381.11C466.065,1379.47 465.748,1377.76 465.748,1375.96C465.748,1374.12 466.065,1372.39 466.698,1370.76C467.332,1369.12 468.24,1367.68 469.423,1366.43C470.607,1365.18 472.048,1364.19 473.748,1363.46C475.448,1362.72 477.365,1362.36 479.498,1362.36C481.632,1362.36 483.54,1362.72 485.223,1363.46C486.907,1364.19 488.34,1365.18 489.523,1366.43C490.707,1367.68 491.615,1369.12 492.248,1370.76C492.882,1372.39 493.198,1374.12 493.198,1375.96C493.198,1377.76 492.882,1379.47 492.248,1381.11C491.615,1382.74 490.715,1384.18 489.548,1385.43C488.382,1386.68 486.948,1387.67 485.248,1388.41C483.548,1389.14 481.632,1389.51 479.498,1389.51ZM472.648,1375.96C472.648,1377.12 472.823,1378.18 473.173,1379.13C473.523,1380.08 474.007,1380.91 474.623,1381.61C475.24,1382.31 475.965,1382.85 476.798,1383.23C477.632,1383.62 478.532,1383.81 479.498,1383.81C480.465,1383.81 481.365,1383.62 482.198,1383.23C483.032,1382.85 483.757,1382.31 484.373,1381.61C484.99,1380.91 485.473,1380.07 485.823,1379.11C486.173,1378.14 486.348,1377.07 486.348,1375.91C486.348,1374.77 486.173,1373.72 485.823,1372.76C485.473,1371.79 484.99,1370.96 484.373,1370.26C483.757,1369.56 483.032,1369.02 482.198,1368.63C481.365,1368.25 480.465,1368.06 479.498,1368.06C478.532,1368.06 477.632,1368.26 476.798,1368.66C475.965,1369.06 475.24,1369.61 474.623,1370.31C474.007,1371.01 473.523,1371.84 473.173,1372.81C472.823,1373.77 472.648,1374.82 472.648,1375.96Z" style="fill:#f2511b;fill-rule:nonzero;"/>
            <path d="M498.898,1389.01L498.898,1369.31L495.448,1369.31L495.448,1364.21L498.898,1364.21L498.898,1362.61C498.898,1359.34 499.682,1356.76 501.248,1354.86C502.815,1352.96 504.948,1352.01 507.648,1352.01C509.782,1352.01 511.932,1352.52 514.098,1353.56L512.748,1358.61C512.248,1358.34 511.657,1358.12 510.973,1357.93C510.29,1357.75 509.665,1357.66 509.098,1357.66C506.765,1357.66 505.598,1359.22 505.598,1362.36L505.598,1364.21L511.998,1364.21L511.998,1369.31L505.598,1369.31L505.598,1389.01L498.898,1389.01Z" style="fill:#f2511b;fill-rule:nonzero;"/>
            <path d="M531.498,1387.66C530.598,1388.06 529.498,1388.46 528.198,1388.86C526.898,1389.26 525.532,1389.46 524.098,1389.46C523.165,1389.46 522.29,1389.34 521.473,1389.11C520.657,1388.87 519.94,1388.5 519.323,1387.98C518.707,1387.46 518.215,1386.8 517.848,1385.98C517.482,1385.16 517.298,1384.17 517.298,1383.01L517.298,1367.96L513.848,1367.96L513.848,1362.81L517.298,1362.81L517.298,1354.31L523.998,1354.31L523.998,1362.81L529.498,1362.81L529.498,1367.96L523.998,1367.96L523.998,1380.76C523.998,1381.69 524.24,1382.35 524.723,1382.73C525.207,1383.12 525.798,1383.31 526.498,1383.31C527.198,1383.31 527.882,1383.19 528.548,1382.96C529.215,1382.72 529.748,1382.52 530.148,1382.36L531.498,1387.66Z" style="fill:#f2511b;fill-rule:nonzero;"/>
            <path d="M567.498,1362.81L573.848,1362.81L562.898,1389.01L557.398,1389.01L552.898,1377.51L548.448,1389.01L542.948,1389.01L532.048,1362.81L538.348,1362.81L546.148,1382.71L549.348,1374.21L544.748,1362.86L550.148,1362.86L552.898,1370.91L555.698,1362.86L561.098,1362.86L556.548,1374.21L559.698,1382.71L567.498,1362.81Z" style="fill:#f2511b;fill-rule:nonzero;"/>
            <path d="M583.448,1389.51C582.182,1389.51 580.998,1389.3 579.898,1388.88C578.798,1388.46 577.848,1387.88 577.048,1387.13C576.248,1386.38 575.623,1385.51 575.173,1384.51C574.723,1383.51 574.498,1382.41 574.498,1381.21C574.498,1379.97 574.773,1378.83 575.323,1377.78C575.873,1376.73 576.64,1375.84 577.623,1375.11C578.607,1374.37 579.782,1373.8 581.148,1373.38C582.515,1372.96 584.015,1372.76 585.648,1372.76C586.815,1372.76 587.957,1372.86 589.073,1373.06C590.19,1373.26 591.182,1373.54 592.048,1373.91L592.048,1372.41C592.048,1370.67 591.557,1369.34 590.573,1368.41C589.59,1367.47 588.132,1367.01 586.198,1367.01C584.798,1367.01 583.432,1367.26 582.098,1367.76C580.765,1368.26 579.398,1368.99 577.998,1369.96L575.948,1365.71C579.315,1363.47 582.948,1362.36 586.848,1362.36C590.615,1362.36 593.54,1363.28 595.623,1365.13C597.707,1366.98 598.748,1369.66 598.748,1373.16L598.748,1381.31C598.748,1382.01 598.873,1382.51 599.123,1382.81C599.373,1383.11 599.782,1383.27 600.348,1383.31L600.348,1389.01C599.215,1389.24 598.232,1389.36 597.398,1389.36C596.132,1389.36 595.157,1389.07 594.473,1388.51C593.79,1387.94 593.365,1387.19 593.198,1386.26L593.048,1384.81C591.882,1386.34 590.465,1387.51 588.798,1388.31C587.132,1389.11 585.348,1389.51 583.448,1389.51ZM585.348,1384.61C586.482,1384.61 587.557,1384.41 588.573,1384.01C589.59,1383.61 590.382,1383.07 590.948,1382.41C591.682,1381.84 592.048,1381.21 592.048,1380.51L592.048,1377.51C591.248,1377.21 590.382,1376.96 589.448,1376.78C588.515,1376.6 587.615,1376.51 586.748,1376.51C585.015,1376.51 583.598,1376.9 582.498,1377.68C581.398,1378.46 580.848,1379.46 580.848,1380.66C580.848,1381.79 581.282,1382.73 582.148,1383.48C583.015,1384.23 584.082,1384.61 585.348,1384.61Z" style="fill:#f2511b;fill-rule:nonzero;"/>
            <path d="M620.598,1368.61C618.565,1368.64 616.748,1369.03 615.148,1369.78C613.548,1370.53 612.398,1371.66 611.698,1373.16L611.698,1389.01L604.998,1389.01L604.998,1362.81L611.148,1362.81L611.148,1368.41C611.615,1367.51 612.165,1366.7 612.798,1365.98C613.432,1365.27 614.115,1364.64 614.848,1364.11C615.582,1363.57 616.323,1363.16 617.073,1362.88C617.823,1362.6 618.548,1362.46 619.248,1362.46C619.615,1362.46 619.89,1362.46 620.073,1362.46C620.257,1362.46 620.432,1362.47 620.598,1362.51L620.598,1368.61Z" style="fill:#f2511b;fill-rule:nonzero;"/>
            <path d="M635.198,1389.51C633.098,1389.51 631.198,1389.15 629.498,1388.43C627.798,1387.71 626.348,1386.74 625.148,1385.51C623.948,1384.27 623.023,1382.84 622.373,1381.21C621.723,1379.57 621.398,1377.86 621.398,1376.06C621.398,1374.19 621.715,1372.43 622.348,1370.78C622.982,1369.13 623.898,1367.68 625.098,1366.43C626.298,1365.18 627.757,1364.19 629.473,1363.46C631.19,1362.72 633.115,1362.36 635.248,1362.36C637.382,1362.36 639.29,1362.72 640.973,1363.46C642.657,1364.19 644.09,1365.17 645.273,1366.41C646.457,1367.64 647.357,1369.07 647.973,1370.71C648.59,1372.34 648.898,1374.04 648.898,1375.81C648.898,1376.24 648.89,1376.66 648.873,1377.06C648.857,1377.46 648.815,1377.79 648.748,1378.06L628.498,1378.06C628.598,1379.09 628.848,1380.01 629.248,1380.81C629.648,1381.61 630.165,1382.29 630.798,1382.86C631.432,1383.42 632.148,1383.86 632.948,1384.16C633.748,1384.46 634.582,1384.61 635.448,1384.61C636.782,1384.61 638.04,1384.28 639.223,1383.63C640.407,1382.98 641.215,1382.12 641.648,1381.06L647.398,1382.66C646.432,1384.66 644.89,1386.3 642.773,1387.58C640.657,1388.87 638.132,1389.51 635.198,1389.51ZM641.998,1373.71C641.832,1371.74 641.107,1370.16 639.823,1368.98C638.54,1367.8 636.982,1367.21 635.148,1367.21C634.248,1367.21 633.407,1367.37 632.623,1367.68C631.84,1368 631.148,1368.44 630.548,1369.01C629.948,1369.57 629.457,1370.26 629.073,1371.06C628.69,1371.86 628.465,1372.74 628.398,1373.71L641.998,1373.71Z" style="fill:#f2511b;fill-rule:nonzero;"/>
        </g>
        <g transform="matrix(4.012,0,0,4.012,-2024.15,-5211.54)">
            <path d="M623.469,1640.15L623.469,1646.2L598.819,1646.2L598.819,1610.7L623.019,1610.7L623.019,1616.75L605.719,1616.75L605.719,1625.3L620.669,1625.3L620.669,1630.9L605.719,1630.9L605.719,1640.15L623.469,1640.15Z" style="fill:#f2511b;fill-rule:nonzero;"/>
            <path d="M652.269,1646.2L645.569,1646.2L645.569,1631.5C645.569,1629.4 645.202,1627.87 644.469,1626.9C643.735,1625.93 642.719,1625.45 641.419,1625.45C640.752,1625.45 640.069,1625.58 639.369,1625.85C638.669,1626.12 638.01,1626.49 637.394,1626.97C636.777,1627.46 636.219,1628.03 635.719,1628.7C635.219,1629.37 634.852,1630.1 634.619,1630.9L634.619,1646.2L627.919,1646.2L627.919,1620L633.969,1620L633.969,1624.85C634.935,1623.18 636.335,1621.88 638.169,1620.95C640.002,1620.02 642.069,1619.55 644.369,1619.55C646.002,1619.55 647.335,1619.85 648.369,1620.45C649.402,1621.05 650.202,1621.83 650.769,1622.8C651.335,1623.77 651.727,1624.87 651.944,1626.1C652.16,1627.33 652.269,1628.58 652.269,1629.85L652.269,1646.2Z" style="fill:#f2511b;fill-rule:nonzero;"/>
            <path d="M668.369,1646.35C666.602,1646.35 665.002,1646 663.569,1645.3C662.135,1644.6 660.894,1643.64 659.844,1642.42C658.794,1641.21 657.985,1639.8 657.419,1638.2C656.852,1636.6 656.569,1634.9 656.569,1633.1C656.569,1631.2 656.869,1629.43 657.469,1627.8C658.069,1626.17 658.902,1624.73 659.969,1623.5C661.035,1622.27 662.319,1621.3 663.819,1620.6C665.319,1619.9 666.969,1619.55 668.769,1619.55C670.802,1619.55 672.585,1620.01 674.119,1620.92C675.652,1621.84 676.919,1623.07 677.919,1624.6L677.919,1620L683.769,1620L683.769,1644.95C683.769,1646.88 683.402,1648.62 682.669,1650.15C681.935,1651.68 680.927,1652.98 679.644,1654.05C678.36,1655.12 676.827,1655.93 675.044,1656.5C673.26,1657.07 671.319,1657.35 669.219,1657.35C666.352,1657.35 663.944,1656.87 661.994,1655.92C660.044,1654.97 658.369,1653.63 656.969,1651.9L660.619,1648.35C661.619,1649.58 662.877,1650.55 664.394,1651.25C665.91,1651.95 667.519,1652.3 669.219,1652.3C670.252,1652.3 671.244,1652.16 672.194,1651.87C673.144,1651.59 673.985,1651.15 674.719,1650.55C675.452,1649.95 676.027,1649.18 676.444,1648.25C676.86,1647.32 677.069,1646.22 677.069,1644.95L677.069,1641.65C676.202,1643.15 674.985,1644.31 673.419,1645.12C671.852,1645.94 670.169,1646.35 668.369,1646.35ZM670.619,1641C671.352,1641 672.052,1640.88 672.719,1640.65C673.385,1640.42 674.002,1640.1 674.569,1639.7C675.135,1639.3 675.635,1638.83 676.069,1638.3C676.502,1637.77 676.835,1637.2 677.069,1636.6L677.069,1630.35C676.469,1628.82 675.527,1627.58 674.244,1626.65C672.96,1625.72 671.619,1625.25 670.219,1625.25C669.185,1625.25 668.252,1625.47 667.419,1625.92C666.585,1626.37 665.869,1626.97 665.269,1627.72C664.669,1628.47 664.21,1629.33 663.894,1630.3C663.577,1631.27 663.419,1632.27 663.419,1633.3C663.419,1634.37 663.602,1635.37 663.969,1636.3C664.335,1637.23 664.844,1638.05 665.494,1638.75C666.144,1639.45 666.902,1640 667.769,1640.4C668.635,1640.8 669.585,1641 670.619,1641Z" style="fill:#f2511b;fill-rule:nonzero;"/>
            <path d="M689.819,1646.2L689.819,1620L696.519,1620L696.519,1646.2L689.819,1646.2ZM689.819,1616.35L689.819,1609.7L696.519,1609.7L696.519,1616.35L689.819,1616.35Z" style="fill:#f2511b;fill-rule:nonzero;"/>
            <path d="M726.919,1646.2L720.219,1646.2L720.219,1631.5C720.219,1629.4 719.852,1627.87 719.119,1626.9C718.385,1625.93 717.369,1625.45 716.069,1625.45C715.402,1625.45 714.719,1625.58 714.019,1625.85C713.319,1626.12 712.66,1626.49 712.044,1626.97C711.427,1627.46 710.869,1628.03 710.369,1628.7C709.869,1629.37 709.502,1630.1 709.269,1630.9L709.269,1646.2L702.569,1646.2L702.569,1620L708.619,1620L708.619,1624.85C709.585,1623.18 710.985,1621.88 712.819,1620.95C714.652,1620.02 716.719,1619.55 719.019,1619.55C720.652,1619.55 721.985,1619.85 723.019,1620.45C724.052,1621.05 724.852,1621.83 725.419,1622.8C725.985,1623.77 726.377,1624.87 726.594,1626.1C726.81,1627.33 726.919,1628.58 726.919,1629.85L726.919,1646.2Z" style="fill:#f2511b;fill-rule:nonzero;"/>
            <path d="M744.919,1646.7C742.819,1646.7 740.919,1646.34 739.219,1645.62C737.519,1644.91 736.069,1643.93 734.869,1642.7C733.669,1641.47 732.744,1640.03 732.094,1638.4C731.444,1636.77 731.119,1635.05 731.119,1633.25C731.119,1631.38 731.435,1629.62 732.069,1627.97C732.702,1626.32 733.619,1624.87 734.819,1623.62C736.019,1622.37 737.477,1621.38 739.194,1620.65C740.91,1619.92 742.835,1619.55 744.969,1619.55C747.102,1619.55 749.01,1619.92 750.694,1620.65C752.377,1621.38 753.81,1622.37 754.994,1623.6C756.177,1624.83 757.077,1626.27 757.694,1627.9C758.31,1629.53 758.619,1631.23 758.619,1633C758.619,1633.43 758.61,1633.85 758.594,1634.25C758.577,1634.65 758.535,1634.98 758.469,1635.25L738.219,1635.25C738.319,1636.28 738.569,1637.2 738.969,1638C739.369,1638.8 739.885,1639.48 740.519,1640.05C741.152,1640.62 741.869,1641.05 742.669,1641.35C743.469,1641.65 744.302,1641.8 745.169,1641.8C746.502,1641.8 747.76,1641.47 748.944,1640.82C750.127,1640.17 750.935,1639.32 751.369,1638.25L757.119,1639.85C756.152,1641.85 754.61,1643.49 752.494,1644.77C750.377,1646.06 747.852,1646.7 744.919,1646.7ZM751.719,1630.9C751.552,1628.93 750.827,1627.36 749.544,1626.17C748.26,1624.99 746.702,1624.4 744.869,1624.4C743.969,1624.4 743.127,1624.56 742.344,1624.87C741.56,1625.19 740.869,1625.63 740.269,1626.2C739.669,1626.77 739.177,1627.45 738.794,1628.25C738.41,1629.05 738.185,1629.93 738.119,1630.9L751.719,1630.9Z" style="fill:#f2511b;fill-rule:nonzero;"/>
            <path d="M774.869,1646.7C772.769,1646.7 770.869,1646.34 769.169,1645.62C767.469,1644.91 766.019,1643.93 764.819,1642.7C763.619,1641.47 762.694,1640.03 762.044,1638.4C761.394,1636.77 761.069,1635.05 761.069,1633.25C761.069,1631.38 761.385,1629.62 762.019,1627.97C762.652,1626.32 763.569,1624.87 764.769,1623.62C765.969,1622.37 767.427,1621.38 769.144,1620.65C770.86,1619.92 772.785,1619.55 774.919,1619.55C777.052,1619.55 778.96,1619.92 780.644,1620.65C782.327,1621.38 783.76,1622.37 784.944,1623.6C786.127,1624.83 787.027,1626.27 787.644,1627.9C788.26,1629.53 788.569,1631.23 788.569,1633C788.569,1633.43 788.56,1633.85 788.544,1634.25C788.527,1634.65 788.485,1634.98 788.419,1635.25L768.169,1635.25C768.269,1636.28 768.519,1637.2 768.919,1638C769.319,1638.8 769.835,1639.48 770.469,1640.05C771.102,1640.62 771.819,1641.05 772.619,1641.35C773.419,1641.65 774.252,1641.8 775.119,1641.8C776.452,1641.8 777.71,1641.47 778.894,1640.82C780.077,1640.17 780.885,1639.32 781.319,1638.25L787.069,1639.85C786.102,1641.85 784.56,1643.49 782.444,1644.77C780.327,1646.06 777.802,1646.7 774.869,1646.7ZM781.669,1630.9C781.502,1628.93 780.777,1627.36 779.494,1626.17C778.21,1624.99 776.652,1624.4 774.819,1624.4C773.919,1624.4 773.077,1624.56 772.294,1624.87C771.51,1625.19 770.819,1625.63 770.219,1626.2C769.619,1626.77 769.127,1627.45 768.744,1628.25C768.36,1629.05 768.135,1629.93 768.069,1630.9L781.669,1630.9Z" style="fill:#f2511b;fill-rule:nonzero;"/>
            <path d="M808.269,1625.8C806.235,1625.83 804.419,1626.22 802.819,1626.97C801.219,1627.72 800.069,1628.85 799.369,1630.35L799.369,1646.2L792.669,1646.2L792.669,1620L798.819,1620L798.819,1625.6C799.285,1624.7 799.835,1623.89 800.469,1623.17C801.102,1622.46 801.785,1621.83 802.519,1621.3C803.252,1620.77 803.994,1620.36 804.744,1620.07C805.494,1619.79 806.219,1619.65 806.919,1619.65C807.285,1619.65 807.56,1619.65 807.744,1619.65C807.927,1619.65 808.102,1619.67 808.269,1619.7L808.269,1625.8Z" style="fill:#f2511b;fill-rule:nonzero;"/>
        </g>
    </g>
</svg>
